<mxfile host="app.diagrams.net" modified="2021-05-04T12:39:30.061Z" agent="5.0 (Windows)" etag="KfaiC-uSiwCio1zhXZIt" version="14.6.9" type="github">
  <diagram id="JVltaT_nDNOEHpSQOxmV" name="Page-1">
    <mxGraphModel dx="782" dy="551" grid="1" gridSize="10" guides="1" tooltips="1" connect="1" arrows="1" fold="1" page="1" pageScale="1" pageWidth="827" pageHeight="1169" math="0" shadow="0">
      <root>
        <mxCell id="0" />
        <mxCell id="1" parent="0" />
        <mxCell id="EP9sFhI_LQ-2BoXjK-Tm-1" value="" style="whiteSpace=wrap;html=1;aspect=fixed;dashed=1;" vertex="1" parent="1">
          <mxGeometry x="140" y="240" width="140" height="140" as="geometry" />
        </mxCell>
        <mxCell id="EP9sFhI_LQ-2BoXjK-Tm-2" value="数据准备" style="text;html=1;align=center;verticalAlign=middle;whiteSpace=wrap;rounded=0;dashed=1;labelBackgroundColor=none;fillColor=#ffffff;" vertex="1" parent="1">
          <mxGeometry x="165" y="210" width="90" height="60" as="geometry" />
        </mxCell>
        <mxCell id="EP9sFhI_LQ-2BoXjK-Tm-3" value="&lt;div&gt;数据&lt;/div&gt;&lt;div&gt;收集&lt;/div&gt;" style="whiteSpace=wrap;html=1;aspect=fixed;labelBackgroundColor=none;fillColor=#FFB366;" vertex="1" parent="1">
          <mxGeometry x="150" y="260" width="50" height="50" as="geometry" />
        </mxCell>
        <mxCell id="EP9sFhI_LQ-2BoXjK-Tm-4" value="&lt;div&gt;等价语义转换&lt;br&gt;&lt;/div&gt;" style="whiteSpace=wrap;html=1;aspect=fixed;labelBackgroundColor=none;fillColor=#FFCC99;" vertex="1" parent="1">
          <mxGeometry x="220" y="260" width="50" height="50" as="geometry" />
        </mxCell>
        <mxCell id="EP9sFhI_LQ-2BoXjK-Tm-5" value="&lt;div&gt;抽取&lt;/div&gt;&lt;div&gt;AST&lt;br&gt;&lt;/div&gt;" style="whiteSpace=wrap;html=1;aspect=fixed;labelBackgroundColor=none;fillColor=#FFFFCC;" vertex="1" parent="1">
          <mxGeometry x="185" y="320" width="50" height="50" as="geometry" />
        </mxCell>
        <mxCell id="EP9sFhI_LQ-2BoXjK-Tm-6" value="" style="endArrow=classic;html=1;" edge="1" parent="1">
          <mxGeometry width="50" height="50" relative="1" as="geometry">
            <mxPoint x="280" y="310" as="sourcePoint" />
            <mxPoint x="330" y="310" as="targetPoint" />
          </mxGeometry>
        </mxCell>
        <mxCell id="EP9sFhI_LQ-2BoXjK-Tm-7" value="" style="whiteSpace=wrap;html=1;aspect=fixed;dashed=1;" vertex="1" parent="1">
          <mxGeometry x="330" y="240" width="140" height="140" as="geometry" />
        </mxCell>
        <mxCell id="EP9sFhI_LQ-2BoXjK-Tm-8" value="模型导入与训练" style="text;html=1;align=center;verticalAlign=middle;whiteSpace=wrap;rounded=0;dashed=1;labelBackgroundColor=none;fillColor=#ffffff;" vertex="1" parent="1">
          <mxGeometry x="355" y="210" width="90" height="60" as="geometry" />
        </mxCell>
        <mxCell id="EP9sFhI_LQ-2BoXjK-Tm-9" value="&lt;div&gt;模型&lt;/div&gt;&lt;div&gt;导入&lt;br&gt;&lt;/div&gt;" style="whiteSpace=wrap;html=1;aspect=fixed;labelBackgroundColor=none;fillColor=#5B4FFF;" vertex="1" parent="1">
          <mxGeometry x="340" y="260" width="50" height="50" as="geometry" />
        </mxCell>
        <mxCell id="EP9sFhI_LQ-2BoXjK-Tm-10" value="&lt;div&gt;超参数&lt;/div&gt;&lt;div&gt;调整&lt;/div&gt;" style="whiteSpace=wrap;html=1;aspect=fixed;labelBackgroundColor=none;fillColor=#3399FF;" vertex="1" parent="1">
          <mxGeometry x="410" y="260" width="50" height="50" as="geometry" />
        </mxCell>
        <mxCell id="EP9sFhI_LQ-2BoXjK-Tm-11" value="&lt;div&gt;优化器&lt;/div&gt;&lt;div&gt;设置&lt;br&gt;&lt;/div&gt;" style="whiteSpace=wrap;html=1;aspect=fixed;labelBackgroundColor=none;fillColor=#7EA6E0;" vertex="1" parent="1">
          <mxGeometry x="340" y="320" width="50" height="50" as="geometry" />
        </mxCell>
        <mxCell id="EP9sFhI_LQ-2BoXjK-Tm-12" value="&lt;div&gt;迭代&lt;/div&gt;&lt;div&gt;训练&lt;br&gt;&lt;/div&gt;" style="whiteSpace=wrap;html=1;aspect=fixed;labelBackgroundColor=none;fillColor=#99CCFF;" vertex="1" parent="1">
          <mxGeometry x="410" y="320" width="50" height="50" as="geometry" />
        </mxCell>
        <mxCell id="EP9sFhI_LQ-2BoXjK-Tm-13" value="" style="whiteSpace=wrap;html=1;aspect=fixed;dashed=1;" vertex="1" parent="1">
          <mxGeometry x="520" y="240" width="140" height="140" as="geometry" />
        </mxCell>
        <mxCell id="EP9sFhI_LQ-2BoXjK-Tm-14" value="模型评估" style="text;html=1;align=center;verticalAlign=middle;whiteSpace=wrap;rounded=0;dashed=1;labelBackgroundColor=none;fillColor=#ffffff;" vertex="1" parent="1">
          <mxGeometry x="545" y="210" width="90" height="60" as="geometry" />
        </mxCell>
        <mxCell id="EP9sFhI_LQ-2BoXjK-Tm-15" value="&lt;div&gt;F1-score&lt;/div&gt;&lt;div&gt;计算&lt;br&gt;&lt;/div&gt;" style="whiteSpace=wrap;html=1;aspect=fixed;labelBackgroundColor=none;fillColor=#66CC00;" vertex="1" parent="1">
          <mxGeometry x="530" y="285" width="50" height="50" as="geometry" />
        </mxCell>
        <mxCell id="EP9sFhI_LQ-2BoXjK-Tm-16" value="&lt;div&gt;相似度&lt;/div&gt;&lt;div&gt;预测&lt;br&gt;&lt;/div&gt;" style="whiteSpace=wrap;html=1;aspect=fixed;labelBackgroundColor=none;fillColor=#CCFF99;" vertex="1" parent="1">
          <mxGeometry x="600" y="285" width="50" height="50" as="geometry" />
        </mxCell>
        <mxCell id="EP9sFhI_LQ-2BoXjK-Tm-17" value="" style="endArrow=classic;html=1;" edge="1" parent="1">
          <mxGeometry width="50" height="50" relative="1" as="geometry">
            <mxPoint x="470" y="280" as="sourcePoint" />
            <mxPoint x="520" y="280" as="targetPoint" />
          </mxGeometry>
        </mxCell>
        <mxCell id="EP9sFhI_LQ-2BoXjK-Tm-18" value="" style="endArrow=classic;html=1;" edge="1" parent="1">
          <mxGeometry width="50" height="50" relative="1" as="geometry">
            <mxPoint x="520" y="344.5" as="sourcePoint" />
            <mxPoint x="470" y="344.5" as="targetPoint" />
          </mxGeometry>
        </mxCell>
      </root>
    </mxGraphModel>
  </diagram>
</mxfile>
